<svg id="Icons" version="1.1" viewBox="0 0 32 32" xml:space="preserve" xmlns="http://www.w3.org/2000/svg" enable-background="new 0 0 32 32"><path d="M29.6 12.7c-.1-.5-.6-.8-1.1-.8-1.2.2-2.4-.4-3-1.5-.6-1-.5-2.4.2-3.3.3-.4.3-1-.1-1.3C24 4.3 22.1 3.2 20 2.6c-.5-.1-1 .1-1.2.6a3.077 3.077 0 0 1-5.6 0c-.2-.5-.7-.8-1.2-.6-2.1.6-4 1.7-5.6 3.3-.4.3-.4.9-.1 1.3.7 1 .8 2.3.2 3.3-.6 1-1.8 1.6-3 1.5-.5-.1-1 .3-1.1.8-.3 1-.4 2.1-.4 3.2s.1 2.2.4 3.3c.1.5.6.8 1.1.7 1.2-.2 2.4.4 3 1.5.6 1 .5 2.4-.2 3.3-.3.4-.3 1 .1 1.3 1.6 1.5 3.6 2.7 5.7 3.3.5.1 1-.1 1.2-.6a3.077 3.077 0 0 1 5.6 0c.2.4.5.6.9.6h.3c2.1-.6 4.1-1.8 5.7-3.3.4-.4.4-.9.1-1.3-.7-1-.8-2.3-.2-3.3.6-1 1.8-1.6 3-1.5.5.1 1-.3 1.1-.8.3-1.1.4-2.2.4-3.3s-.3-2.1-.6-3.2zm-17.9 5.6c.4.4.4 1 0 1.4-.2.2-.4.3-.7.3s-.5-.1-.7-.3l-3-3c-.4-.4-.4-1 0-1.4l3-3c.4-.4 1-.4 1.4 0s.4 1 0 1.4L9.4 16l2.3 2.3zm7.2-5.9-4 8c-.2.4-.5.6-.9.6-.2 0-.3 0-.4-.1-.5-.2-.7-.8-.4-1.3l4-8c.2-.5.8-.7 1.3-.4.4.2.6.8.4 1.2zm5.8 4.3-3 3c-.2.2-.4.3-.7.3s-.5-.1-.7-.3c-.4-.4-.4-1 0-1.4l2.3-2.3-2.3-2.3c-.4-.4-.4-1 0-1.4s1-.4 1.4 0l3 3c.4.4.4 1 0 1.4z" fill="#ffffff" class="fill-000000"></path></svg>